<svg width="1080" height="1920" viewBox="0 0 1080 1920" fill="none" xmlns="http://www.w3.org/2000/svg">
<mask id="mask0_118_3049" style="mask-type:luminance" maskUnits="userSpaceOnUse" x="0" y="0" width="1080" height="1920">
<path d="M1080 0H0V1920H1080V0Z" fill="white"/>
</mask>
<g mask="url(#mask0_118_3049)">
<path d="M-336.374 1992.3C-339.86 1976.23 -341.603 1968.93 -344.508 1953.59C-135.363 1919.27 -13.943 2085.78 169.64 2171.23C333.47 2247.18 482.776 2191.68 634.406 2096.74C784.874 2002.53 918.494 1877.64 1063.73 1774.67C1179.92 1692.87 1307.15 1669.5 1434.38 1626.41C1437.87 1642.48 1439.03 1650.51 1442.52 1667.31C1310.06 1714.78 1182.25 1746.92 1064.31 1838.2C919.656 1949.94 787.778 2077.02 633.825 2171.23C481.033 2265.44 332.889 2313.64 171.382 2227.46C-8.71439 2130.33 -125.487 1955.79 -336.374 1992.3Z" fill="#FE247B"/>
<path d="M-313.136 1889.33C-316.041 1876.18 -317.203 1870.34 -320.108 1857.92C-127.811 1862.3 13.9429 2008.37 196.945 2052.92C368.908 2095.28 519.957 2008.37 669.844 1911.24C804.045 1824.33 934.18 1708.94 1074.77 1638.1C1188.06 1580.4 1315.29 1580.4 1433.22 1544.62C1436.13 1559.95 1437.87 1567.99 1440.77 1583.32C1319.35 1622.03 1190.38 1631.53 1075.35 1697.98C935.341 1779.05 806.95 1895.17 669.263 1983.54C519.376 2079.94 367.746 2160.27 198.106 2107.69C15.6858 2051.46 -119.096 1895.9 -313.136 1889.33Z" fill="#FE247B"/>
<path d="M-288.736 1808.26C-291.06 1797.31 -292.222 1792.19 -295.126 1782.7C-121.42 1803.88 36.0193 1913.43 209.726 1924.38C396.794 1936.07 544.938 1827.98 704.701 1723.55C820.312 1648.32 946.38 1549 1073.61 1508.83C1189.8 1472.32 1311.8 1495.69 1430.32 1463.55C1433.22 1478.16 1434.96 1485.46 1437.87 1500.8C1318.19 1535.12 1190.96 1521.25 1074.19 1566.53C946.38 1616.19 823.217 1716.24 704.701 1793.66C545.519 1896.63 395.632 2000.33 210.307 1976.23C37.1813 1953.59 -115.03 1834.55 -288.736 1808.26Z" fill="#FE247B"/>
<path d="M-263.174 1741.8C-265.498 1733.04 -266.659 1728.66 -268.402 1719.89C-97.6008 1743.26 69.1341 1817.03 242.259 1792.19C429.909 1765.9 576.891 1638.83 741.883 1536.58C844.131 1473.05 967.294 1387.6 1083.49 1378.11C1203.74 1368.61 1304.83 1412.43 1429.16 1381.03C1432.06 1394.9 1433.22 1402.21 1436.13 1416.08C1313.55 1448.95 1204.33 1413.16 1084.07 1431.42C966.132 1448.95 846.455 1536.58 741.302 1601.58C578.053 1702.37 429.328 1825.79 242.259 1841.13C70.296 1856.46 -94.1151 1771.02 -263.174 1741.8Z" fill="#FE247B"/>
<path d="M-236.45 1683.38C-238.193 1675.34 -239.355 1671.69 -241.097 1664.39C-65.6482 1679.73 102.829 1711.86 275.955 1654.9C458.956 1594.28 605.358 1454.06 775.578 1357.66C869.112 1304.34 985.304 1237.89 1090.46 1256.87C1216.53 1279.51 1289.73 1335.75 1427.41 1302.15C1430.32 1315.3 1431.48 1321.87 1433.8 1335.02C1299.6 1369.34 1217.69 1318.22 1091.62 1305.07C984.723 1294.12 870.855 1363.5 775.578 1417.54C607.101 1513.21 460.118 1649.78 275.955 1701.64C103.41 1749.11 -63.3244 1704.56 -236.45 1683.38Z" fill="#FE247B"/>
<path d="M-207.983 1626.41C-209.726 1619.11 -210.307 1616.19 -212.05 1608.89C-38.9242 1606.69 126.649 1598.66 291.06 1520.52C472.899 1434.34 625.691 1277.32 804.626 1187.49C902.227 1138.56 1001.57 1100.59 1103.24 1145.87C1229.89 1202.1 1275.78 1255.41 1424.51 1220.36C1427.41 1232.04 1429.16 1238.62 1432.06 1250.3C1285.66 1287.55 1233.95 1235.69 1105.56 1188.22C1002.73 1149.52 902.808 1191.14 805.788 1240.81C628.015 1331.37 475.223 1483.27 291.641 1562.88C127.23 1633.72 -37.1814 1631.53 -207.983 1626.41Z" fill="#FE247B"/>
<path d="M-178.935 1567.26C-180.678 1560.68 -181.259 1557.03 -183.001 1551.19C-3.48558 1525.63 160.925 1478.16 324.174 1375.91C493.814 1270.02 649.511 1104.97 830.188 1030.48C931.275 988.848 1012.03 978.623 1104.4 1043.62C1222.92 1126.15 1266.49 1173.62 1415.21 1145.87C1418.7 1156.09 1420.44 1161.93 1423.93 1172.89C1272.88 1205.02 1229.31 1159.01 1107.31 1081.6C1013.19 1022.44 931.275 1036.32 831.931 1077.95C651.835 1153.17 497.3 1314.57 325.336 1415.35C162.668 1510.29 -1.16176 1549 -178.935 1567.26Z" fill="#FE247B"/>
<path d="M-149.306 1502.26C-151.049 1495.69 -151.63 1492.77 -152.792 1486.19C38.9242 1431.42 207.983 1342.32 376.461 1215.25C526.929 1102.05 677.977 936.995 852.265 888.794C959.161 858.851 1027.71 877.84 1111.95 960.365C1210.72 1056.77 1268.23 1094.74 1401.85 1075.02C1405.92 1084.52 1407.66 1088.9 1411.73 1098.39C1276.36 1121.03 1217.11 1085.98 1114.86 991.038C1029.46 912.164 960.904 897.558 855.17 927.501C680.882 976.432 530.414 1139.29 378.784 1250.3C209.726 1372.26 41.248 1453.33 -149.306 1502.26Z" fill="#FE247B"/>
<path d="M-119.677 1427.77C-120.839 1421.19 -122.001 1418.27 -123.163 1411.7C76.6863 1324.79 251.555 1196.99 427.585 1050.92C559.462 941.377 704.121 798.235 864.465 769.022C966.132 750.765 1025.39 788.741 1099.17 871.267C1196.19 980.814 1246.15 1022.44 1383.84 1007.84C1387.91 1015.87 1390.23 1020.25 1394.3 1029.01C1256.03 1046.54 1203.74 1007.11 1104.4 898.288C1029.46 816.493 970.78 781.438 869.112 800.426C708.187 830.369 563.529 974.241 430.49 1083.06C254.459 1224.74 79.0102 1346.7 -119.677 1427.77Z" fill="#FE247B"/>
<path d="M-90.6295 1343.05C-92.3723 1336.48 -92.9533 1333.56 -94.1152 1326.98C102.829 1215.25 274.793 1063.34 452.566 910.704C575.148 805.538 716.901 677.733 870.855 671.891C967.294 668.239 1020.74 719.361 1085.81 801.156C1175.86 914.355 1228.14 955.253 1361.18 944.298C1365.25 951.601 1367.57 955.253 1372.22 962.556C1238.02 975.702 1184.57 936.995 1092.78 823.066C1027.13 742.001 973.685 690.148 876.665 694.53C722.13 701.103 579.214 832.56 456.052 936.995C278.279 1087.44 105.734 1234.96 -90.6295 1343.05Z" fill="#FE247B"/>
<path d="M-63.3244 1246.65C-65.0673 1240.08 -65.6482 1237.15 -67.3911 1230.58C116.191 1104.97 276.536 945.029 450.823 802.617C567.595 706.946 719.806 581.331 866.789 593.016C951.608 599.589 1002.73 655.093 1058.5 728.855C1146.23 845.706 1200.26 891.716 1336.2 883.682C1340.27 890.255 1342.59 893.906 1346.66 900.479C1209.55 910.704 1154.94 865.424 1066.06 747.843C1010.29 674.081 959.161 617.847 874.341 611.274C725.616 599.589 572.824 725.934 455.471 823.066C281.764 965.477 120.839 1123.23 -63.3244 1246.65Z" fill="#FE247B"/>
<path d="M-38.3432 1138.56C-40.0861 1131.99 -40.667 1129.07 -42.4099 1122.5C123.163 995.42 274.212 843.515 438.042 713.518C554.814 621.499 706.444 505.378 850.522 528.749C935.341 542.625 984.723 605.432 1040.49 681.385C1122.99 794.584 1182.25 828.908 1309.48 823.066C1313.54 828.908 1315.87 831.83 1319.35 837.672C1190.96 844.975 1131.12 810.65 1048.05 696.721C992.275 620.038 943.475 557.231 858.655 542.625C713.997 517.794 561.205 635.375 444.432 728.125C280.021 858.851 128.392 1011.49 -38.3432 1138.56Z" fill="#FE247B"/>
<path d="M-17.4286 1015.87C-19.7524 1009.3 -20.3334 1006.38 -22.6572 999.802C197.526 822.335 538.548 407.516 826.703 475.435C908.037 494.424 956.256 558.692 1010.87 630.993C1093.94 740.54 1156.69 771.944 1281.59 766.101C1285.66 771.213 1287.4 774.135 1290.89 779.247C1165.4 785.82 1102.66 754.416 1019 644.138C964.39 571.837 916.751 506.109 835.417 486.39C546.681 415.55 202.173 836.942 -17.4286 1015.87Z" fill="#FE247B"/>
<path d="M-11.6191 893.176C-14.5238 888.064 -15.6858 885.143 -18.5906 880.03C195.202 712.788 521.7 348.361 797.655 427.965C869.694 449.144 919.075 509.03 970.199 571.837C1059.67 680.654 1123.57 713.518 1252.54 708.406C1256.03 712.788 1257.77 715.709 1261.26 720.091C1131.12 725.934 1067.22 693.07 978.333 582.792C927.789 519.985 878.989 458.638 806.95 436.729C530.995 354.203 201.011 725.934 -11.6191 893.176Z" fill="#FE247B"/>
<path d="M-20.3335 780.707C-23.2383 776.326 -24.9812 774.135 -27.886 769.753C184.744 614.196 497.299 305.272 763.378 387.798C833.674 409.707 884.217 467.402 936.503 525.827C1028.88 628.071 1098.01 656.554 1224.66 650.711C1227.56 655.093 1229.31 657.284 1232.21 660.936C1104.98 666.778 1035.85 638.296 944.056 534.591C891.77 475.435 841.807 417.01 772.092 394.37C506.014 308.924 191.135 624.42 -20.3335 780.707Z" fill="#FE247B"/>
<path d="M-40.086 675.542C-42.9907 671.89 -44.7336 670.43 -47.6384 666.778C166.735 525.097 467.671 270.947 724.454 351.282C798.817 374.652 849.36 432.347 909.78 487.851C1002.73 574.028 1080.58 597.398 1196.77 591.556C1199.1 595.207 1200.26 597.398 1203.16 601.05C1086.97 606.892 1009.12 584.253 916.17 496.615C856.331 439.65 806.369 381.225 732.007 357.124C475.804 274.599 173.125 533.13 -40.086 675.542Z" fill="#FE247B"/>
<path d="M-66.8102 578.41C-69.715 575.489 -70.877 574.028 -73.7817 571.107C145.239 444.032 435.718 239.544 687.273 314.036C761.054 335.945 814.502 389.989 877.246 440.38C974.266 517.794 1056.18 538.243 1171.79 532.4C1173.53 536.052 1174.7 537.512 1177.02 541.164C1061.41 547.737 978.913 527.288 882.474 448.414C820.312 397.292 766.864 342.518 693.663 319.878C442.69 241.734 151.049 450.605 -66.8102 578.41Z" fill="#FE247B"/>
<path d="M-98.1819 486.39C-100.506 484.199 -101.668 482.739 -103.991 480.548C120.258 370.27 403.765 207.41 651.253 275.329C724.454 295.778 781.969 344.709 847.036 389.989C947.542 459.369 1034.69 476.896 1149.13 470.323C1150.88 473.245 1151.46 474.705 1153.2 477.627C1038.17 484.199 951.608 466.672 851.103 396.562C786.616 351.282 729.683 300.89 656.482 280.441C409.575 208.87 124.906 374.652 -98.1819 486.39Z" fill="#FE247B"/>
<path d="M-130.135 397.292C-131.877 395.101 -133.039 394.37 -134.782 392.18C94.115 300.16 374.137 170.164 618.72 230.78C692.501 249.038 753.502 293.587 820.893 333.754C924.303 394.37 1015.51 410.437 1129.96 403.865C1131.12 406.056 1131.71 407.516 1132.87 410.437C1018.42 417.01 927.208 400.943 823.798 339.597C756.988 299.429 695.987 254.15 622.786 235.162C378.203 173.085 98.1817 304.542 -130.135 397.292Z" fill="#FE247B"/>
<path d="M-159.763 309.654C-160.925 308.193 -161.506 307.463 -163.249 306.002C70.2959 231.51 347.994 126.345 591.415 179.658C781.969 221.286 909.78 346.17 1114.28 334.485C1114.86 336.676 1115.44 337.406 1116.02 339.597C995.18 346.9 901.065 330.103 790.683 271.677C726.197 237.353 663.454 199.376 593.739 184.04C350.898 128.536 73.2007 234.431 -159.763 309.654Z" fill="#FE247B"/>
<path d="M-183.583 221.286C-184.164 219.825 -184.744 219.825 -185.325 218.364C52.2862 159.939 327.66 73.0316 571.081 120.502C761.635 157.748 902.808 270.217 1104.4 260.723C1104.98 262.183 1104.98 262.914 1104.98 264.374C903.389 274.599 762.797 161.4 572.243 123.423C329.403 74.4923 53.4481 162.13 -183.583 221.286Z" fill="#FE247B"/>
<path d="M-198.107 127.805C-198.107 127.075 -198.688 127.075 -198.688 126.345C41.8289 82.5257 315.46 5.84253 558.881 49.6615C748.854 83.9863 900.484 187.691 1099.17 181.118C1099.17 181.849 1099.17 182.579 1099.17 183.309C900.484 189.882 748.854 86.1773 558.881 51.8524C316.041 6.57285 42.4099 83.9863 -198.107 127.805Z" fill="#FE247B"/>
</g>
</svg>
